<?xml version="1.0" encoding="utf-8"?>
<!-- Generator: Adobe Illustrator 24.1.2, SVG Export Plug-In . SVG Version: 6.00 Build 0)  -->
<svg version="1.1" id="图层_1" xmlns="http://www.w3.org/2000/svg" xmlns:xlink="http://www.w3.org/1999/xlink" x="0px" y="0px"
	 viewBox="0 0 42.6 42" style="enable-background:new 0 0 42.6 42;" xml:space="preserve">
<style type="text/css">
	.st0{fill:#F5D53C;}
</style>
<path class="st0" d="M1.2,11c0-5.5,4.5-10,10-10h20c5.5,0,10,4.5,10,10v20c0,5.5-4.5,10-10,10h-20c-5.5,0-10-4.5-10-10V11z"/>
<g>
	<path d="M36.4,13.7L8.3,14.6l6.5,13.1l-3.7,1.8L2.4,11.9l3.1-1.6l28.7-1.1L36.4,13.7z"/>
</g>
<g>
	<path d="M38.4,18.5l-22.3,0.7l6.5,13.1L19,34.1l-8.8-17.6l3.1-1.6L36.7,14L38.4,18.5z"/>
</g>
<g>
	<path d="M39.9,23.3l-15.9,0.5l6.5,13.1l-3.7,1.8l-8.8-17.6l3.1-1.6L38.7,19L39.9,23.3z"/>
</g>
</svg>
